<?xml version="1.0" encoding="UTF-8"?>
<svg version="1.1" xmlns="http://www.w3.org/2000/svg" width="1355" height="1181">
<path d="M0 0 C1.13034668 0.17160645 2.26069336 0.34321289 3.42529297 0.52001953 C39.98105933 6.2132558 75.97613085 16.26396107 109.5703125 31.87402344 C111.8290733 32.92078839 114.09868458 33.93743841 116.375 34.9453125 C141.84703296 46.36752092 166.17134832 61.62678544 188 79 C188.9266748 79.73597412 188.9266748 79.73597412 189.87207031 80.48681641 C198.14950864 87.07986927 206.20639246 93.83794342 214 101 C214.74765625 101.65613281 215.4953125 102.31226563 216.265625 102.98828125 C221.76551925 107.82345318 227.00119333 112.89585197 232.1875 118.0625 C232.85281738 118.7232251 233.51813477 119.3839502 234.20361328 120.06469727 C238.67161726 124.54658393 242.8794515 129.19848395 247 134 C247.845625 134.96421875 248.69125 135.9284375 249.5625 136.921875 C261.77624098 151.09294626 273.02565614 166.1691965 283 182 C283.44875488 182.70962891 283.89750977 183.41925781 284.35986328 184.15039062 C336.17694977 266.73109852 353.54351482 364.28437212 334.5480957 487.84814453 C327.52829924 517.10544831 317.32947726 546.47699836 303.03515625 573.04736328 C301.84354854 575.29511764 300.70288887 577.56568591 299.5625 579.83984375 C284.36631796 609.89751494 264.53308758 637.65360375 241.55078125 662.265625 C239.13850561 664.85152538 236.78351112 667.47906102 234.4375 670.125 C228.03271114 677.2503276 221.3168836 684.0247241 214.02734375 690.24609375 C212.62158423 691.46225179 211.24005267 692.70676501 209.87890625 693.97265625 C202.69519486 700.6475719 194.97609525 706.5311515 187.13427734 712.40087891 C185.16289597 713.87794914 183.20007984 715.36571326 181.23828125 716.85546875 C128.91304711 756.27414129 66.47841987 780.19567145 2 790 C0.96681641 790.16516113 -0.06636719 790.33032227 -1.13085938 790.50048828 C-19.19853149 793.27725861 -37.32203844 793.3115598 -55.5625 793.375 C-56.75741058 793.38294586 -57.95232117 793.39089172 -59.18344116 793.39907837 C-81.61899344 793.51352879 -103.92505643 791.90092065 -126 787.75 C-127.13840332 787.53947998 -128.27680664 787.32895996 -129.44970703 787.11206055 C-199.25087885 773.80223095 -263.56116006 742.84573631 -317 696 C-317.88945312 695.22269531 -318.77890625 694.44539063 -319.6953125 693.64453125 C-326.23473899 687.78513059 -332.49062274 681.63546388 -338.72268677 675.45254517 C-340.1444053 674.04273377 -341.57006788 672.63690321 -342.99584961 671.23120117 C-349.10286175 665.13182212 -354.62251363 658.74529337 -360 652 C-360.86349653 650.97254096 -361.73189014 649.94913236 -362.609375 648.93359375 C-382.70871549 625.49658905 -398.60628363 598.68104117 -412.04101562 570.96679688 C-412.98660188 569.02747843 -413.95306265 567.09967401 -414.921875 565.171875 C-456.6467893 480.86281913 -464.87269436 378.63069667 -434.109375 272.26611328 C-419.56067472 229.43325404 -398.33782775 189.05359279 -371 153 C-370.5261084 152.37448242 -370.0522168 151.74896484 -369.56396484 151.10449219 C-354.78178321 131.71548165 -338.54208372 112.8801014 -320 97 C-318.98113501 96.10619302 -317.96295982 95.21159937 -316.9453125 94.31640625 C-259.9190651 44.41120294 -187.09712939 10.74905219 -112 1 C-111.31335266 0.90914124 -110.62670532 0.81828247 -109.91925049 0.72467041 C-73.55180994 -4.06714177 -36.36731939 -5.641971 0 0 Z " fill="#00B000" transform="translate(737,388)"/>
<path d="M0 0 C1.57888457 0.02615457 3.15788379 0.04606292 4.73692322 0.06002808 C8.86812168 0.11316951 12.99228601 0.25033905 17.12072754 0.40588379 C21.34318851 0.54982901 25.56680178 0.61319059 29.79101562 0.68359375 C38.06049952 0.83317417 46.32429392 1.07165935 54.58984375 1.3671875 C56.76612089 6.78717742 58.24128928 11.88564638 59.2109375 17.6328125 C59.50140146 19.24379539 59.79363388 20.85446017 60.08740234 22.46484375 C60.31541534 23.72385498 60.31541534 23.72385498 60.54803467 25.00830078 C71.5033045 84.63800326 98.64067225 135.83790786 135.58984375 183.3671875 C136.07340332 183.99254395 136.55696289 184.61790039 137.05517578 185.26220703 C151.9430489 204.51101846 168.22052819 222.18287678 185.45117188 239.35888672 C187.48816796 241.3904495 189.51966326 243.42740586 191.55078125 245.46484375 C192.87337692 246.78677957 194.19628224 248.10840567 195.51953125 249.4296875 C196.40884842 250.32204102 196.40884842 250.32204102 197.31613159 251.23242188 C202.08158269 255.97174193 207.06420106 260.4386933 212.23434448 264.7331543 C213.65234375 265.9921875 213.65234375 265.9921875 215.58984375 268.3671875 C214.75369686 279.16277294 204.24359308 291.13766078 198.42285156 299.91040039 C197.89916992 300.70309326 197.37548828 301.49578613 196.8359375 302.3125 C196.32639841 303.06757749 195.81685932 303.82265497 195.29187965 304.60061359 C193.5167365 307.34992479 193.5167365 307.34992479 192.22092247 310.4373579 C188.34863811 318.6940542 188.34863811 318.6940542 183.7418251 320.45719337 C180.09634738 320.85840297 176.6216584 320.86326857 172.95556641 320.74536133 C171.55538902 320.74358647 170.15519663 320.74711808 168.75504303 320.75547028 C164.90304155 320.76318854 161.05541985 320.69594281 157.20435953 320.61674523 C153.02096878 320.54414442 148.83745828 320.54187741 144.65353394 320.53105164 C137.35433078 320.50273641 130.05659972 320.43070353 122.75805664 320.32958984 C112.12587159 320.18266489 101.49401407 320.10291717 90.86103201 320.04091954 C74.21969064 319.9429141 57.57899733 319.80449162 40.93818903 319.64023852 C12.64521826 319.36212112 -15.64762581 319.2206695 -43.94170046 319.11178374 C-50.00299546 319.08841139 -56.06428748 319.06428604 -62.12557983 319.04023743 C-64.53070132 319.03070036 -66.9358228 319.0211633 -69.34094429 319.01162624 C-70.527398 319.00691559 -71.7138517 319.00220493 -72.93625855 318.99735153 C-75.32280211 318.98790228 -77.70934587 318.97850119 -80.09588981 318.96914876 C-106.35703005 318.86611417 -132.61796294 318.72998079 -158.87890625 318.5859375 C-160.94026818 318.57467503 -163.00163013 318.56341592 -165.0629921 318.55216026 C-176.17871849 318.49138926 -187.2944401 318.42980393 -198.41015625 318.3671875 C-197.37366204 309.52590825 -197.37366204 309.52590825 -195.765625 306.5703125 C-195.4250708 305.93279053 -195.0845166 305.29526855 -194.73364258 304.63842773 C-194.35876709 303.97141846 -193.9838916 303.30440918 -193.59765625 302.6171875 C-193.20022217 301.88894775 -192.80278809 301.16070801 -192.39331055 300.41040039 C-188.33789344 293.0630212 -183.98875338 285.88890083 -179.63671875 278.71484375 C-176.23095527 273.0916887 -172.90657023 267.42275238 -169.59765625 261.7421875 C-169.01322754 260.73953857 -168.42879883 259.73688965 -167.82666016 258.70385742 C-164.79556936 253.49466064 -161.78087377 248.27649585 -158.78515625 243.046875 C-151.82414342 230.90374399 -144.7224958 218.86743505 -137.42468262 206.92495728 C-133.10463257 199.85256303 -128.85513199 192.76086491 -124.85424805 185.50244141 C-121.32226361 179.12642434 -117.57879805 172.87800648 -113.84765625 166.6171875 C-108.25708722 157.23024431 -102.75333637 147.79933883 -97.34765625 138.3046875 C-97.01701172 137.7239447 -96.68636719 137.1432019 -96.34570312 136.54486084 C-95.01523572 134.20754667 -93.68491953 131.87014659 -92.35498047 129.53253174 C-87.6495019 121.26683412 -82.88425784 113.03557853 -78.125 104.80078125 C-75.63062499 100.48467905 -73.1442168 96.16413257 -70.6640625 91.83984375 C-63.99762247 80.22671952 -57.24613723 68.67360169 -50.32958984 57.20751953 C-46.71340959 51.21185322 -43.12137417 45.20330087 -39.55859375 39.17578125 C-39.14194458 38.47144958 -38.72529541 37.76711792 -38.29602051 37.04144287 C-35.82076165 32.85665002 -35.82076165 32.85665002 -33.35095215 28.66864014 C-32.20900546 26.72950016 -31.06370834 24.79236947 -29.91796875 22.85546875 C-29.2645752 21.74727783 -28.61118164 20.63908691 -27.93798828 19.49731445 C-27.55752853 18.89884705 -27.17706879 18.30037964 -26.78507996 17.68377686 C-25.27143681 15.20864122 -25.27143681 15.20864122 -23.70185852 11.83135986 C-17.97295053 0.65498012 -12.03398305 -0.58893161 0 0 Z M7.58984375 71.3671875 C6.93242187 72.71683594 6.93242187 72.71683594 6.26171875 74.09375 C-2.49505902 91.91675735 -12.26573667 109.190744 -22.0625 126.45703125 C-25.51257615 132.53998031 -28.93317841 138.63920058 -32.34765625 144.7421875 C-32.9288623 145.78093018 -33.51006836 146.81967285 -34.10888672 147.88989258 C-35.28739522 149.99651318 -36.46578041 152.10320277 -37.64404297 154.20996094 C-41.14609757 160.47047658 -44.65229378 166.72867362 -48.15771484 172.98730469 C-51.0882841 178.21993798 -54.01784669 183.45312972 -56.9453125 188.6875 C-66.16846581 205.17525638 -75.42374638 221.64493256 -84.78515625 238.0546875 C-85.39230469 239.11945313 -85.99945313 240.18421875 -86.625 241.28125 C-87.86955263 243.43266483 -89.13420487 245.5725238 -90.4140625 247.703125 C-91.05214844 248.76789063 -91.69023438 249.83265625 -92.34765625 250.9296875 C-92.91355469 251.85910156 -93.47945313 252.78851562 -94.0625 253.74609375 C-95.40233179 256.35196949 -95.90080292 258.50517809 -96.41015625 261.3671875 C-71.32994535 261.45719054 -46.26634848 261.23878805 -21.19022918 260.79433179 C-17.45370075 260.72848015 -13.71713876 260.66464761 -9.98057634 260.60075897 C-1.17767265 260.45019921 7.62517003 260.29640058 16.42797852 260.14038086 C25.47110095 259.98015811 34.51430741 259.82552926 43.55757123 259.67351395 C51.3945262 259.54158848 59.23141873 259.406328 67.06826991 259.26837486 C71.71922346 259.1865317 76.3701895 259.1059083 81.02121925 259.02850533 C85.36781677 258.95602092 89.71432101 258.87935741 94.06078911 258.79949951 C95.64902801 258.77100645 97.23729378 258.74396621 98.82558441 258.71851921 C109.74533606 258.55842228 109.74533606 258.55842228 120.58984375 257.3671875 C117.92609298 253.1654744 115.11743513 249.65525614 111.65234375 246.0546875 C105.34845894 239.33743319 99.87302578 232.07249528 94.35839844 224.70507812 C92.56737962 222.33749169 90.74409889 219.99852066 88.91015625 217.6640625 C80.87963211 207.39091743 73.38026612 196.83839185 66.15234375 185.9921875 C65.53321609 185.06546738 65.53321609 185.06546738 64.90158081 184.12002563 C44.47149663 153.46750215 26.25467377 120.47318363 14.94140625 85.30078125 C14.67183105 84.46546875 14.40225586 83.63015625 14.12451172 82.76953125 C13.61306853 81.16295676 13.11405151 79.55235706 12.62939453 77.9375 C12.03748067 76.05085423 11.32347495 74.20337365 10.58984375 72.3671875 C9.59984375 72.0371875 8.60984375 71.7071875 7.58984375 71.3671875 Z " fill="#00AF00" transform="translate(198.41015625,859.6328125)"/>
<path d="M0 0 C3.45649363 1.15216454 3.74088433 1.71787648 5.57421875 4.70703125 C6.06865479 5.5067334 6.56309082 6.30643555 7.07250977 7.13037109 C7.60545654 8.01547363 8.13840332 8.90057617 8.6875 9.8125 C9.25202881 10.73885254 9.81655762 11.66520508 10.39819336 12.61962891 C22.95830971 33.3785442 35.03930945 54.51991877 45.62890625 76.359375 C46.95096383 78.90555996 48.41008348 81.08016002 50.125 83.375 C58.03318171 94.5190974 64.02056894 106.92033749 70.28491211 119.02954102 C74.30967963 126.76957553 78.54003331 134.37435124 82.86230469 141.95141602 C87.31462051 149.76137758 91.66977018 157.62203291 96 165.5 C101.31809285 175.16966133 106.69211223 184.8049176 112.13891602 194.40283203 C116.92426541 202.84323762 121.63598364 211.3236505 126.34179688 219.80859375 C130.56585421 227.42318427 134.80568937 235.02867127 139.0625 242.625 C139.63677734 243.64980469 140.21105469 244.67460937 140.80273438 245.73046875 C142.53479651 248.82051436 144.26730703 251.91030808 146 255 C148.31310244 259.12466262 150.62567718 263.24962003 152.9375 267.375 C153.50742676 268.39182861 154.07735352 269.40865723 154.66455078 270.45629883 C157.77761669 276.01522042 160.87999081 281.57989169 163.96875 287.15234375 C164.30105118 287.75161682 164.63335236 288.35088989 164.97572327 288.96832275 C166.57347228 291.85010116 168.1697017 294.73269225 169.76342773 297.61669922 C170.34552002 298.66744629 170.9276123 299.71819336 171.52734375 300.80078125 C172.09050293 301.82510254 172.65366211 302.84942383 173.23388672 303.90478516 C174.45816413 306.05040155 175.74051384 308.16351466 177.06689453 310.24755859 C177.7267334 311.29379395 178.38657227 312.3400293 179.06640625 313.41796875 C179.67556885 314.34762451 180.28473145 315.27728027 180.91235352 316.23510742 C182 319 182 319 181.36987305 322.08056641 C180.10636439 324.77331931 178.82704996 326.94479462 177.015625 329.29296875 C176.4165332 330.07929688 175.81744141 330.865625 175.20019531 331.67578125 C174.23484863 332.91908203 174.23484863 332.91908203 173.25 334.1875 C171.89500133 335.96160444 170.54085669 337.73636143 169.1875 339.51171875 C168.49527344 340.41583496 167.80304688 341.31995117 167.08984375 342.25146484 C163.75993096 346.63092257 160.50419667 351.06414801 157.25 355.5 C156.10951531 357.05218644 154.96890012 358.604277 153.828125 360.15625 C153.1151123 361.12788086 153.1151123 361.12788086 152.38769531 362.11914062 C151.92975586 362.73982422 151.47181641 363.36050781 151 364 C150.50902832 364.73041504 150.01805664 365.46083008 149.51220703 366.21337891 C148 368 148 368 144.9765625 368.4296875 C139.89650186 367.8807615 135.26237666 366.58024798 130.375 365.125 C128.13582603 364.48164643 125.8962143 363.8398152 123.65625 363.19921875 C121.82513672 362.67207275 121.82513672 362.67207275 119.95703125 362.13427734 C96.17311662 355.3039521 72.46537786 348.90469037 48 345 C46.3603125 344.73533936 46.3603125 344.73533936 44.6875 344.46533203 C13.01866293 339.61796301 -21.39856906 339.79626356 -53 345 C-54.04317383 345.16628906 -55.08634766 345.33257812 -56.16113281 345.50390625 C-80.72972256 349.52543958 -104.49363242 356.35255064 -127.76953125 365.1171875 C-141.42278074 370.14926618 -141.42278074 370.14926618 -148 369 C-150.07432234 366.56735573 -151.42067928 364.51701167 -152.9375 361.75 C-153.94306627 360.0294756 -154.95690523 358.31377358 -155.9765625 356.6015625 C-156.57629883 355.59383789 -157.17603516 354.58611328 -157.79394531 353.54785156 C-160.43174175 349.23284351 -163.29536413 345.07282763 -166.1484375 340.8984375 C-166.9648748 339.6989447 -166.9648748 339.6989447 -167.79780579 338.47521973 C-170.02432719 335.20513704 -172.2514917 331.93585075 -174.50241089 328.68249512 C-176.10511028 326.36243176 -177.68878398 324.03036682 -179.26953125 321.6953125 C-180.00766556 320.64312027 -180.00766556 320.64312027 -180.76071167 319.56967163 C-184.00661451 314.7282035 -184.00661451 314.7282035 -183.97607422 311.3659668 C-182.83977713 308.61162584 -181.57185971 306.04975258 -180.11328125 303.44921875 C-179.21113892 301.83140503 -179.21113892 301.83140503 -178.29077148 300.1809082 C-177.63166085 299.0162615 -176.97222866 297.85179672 -176.3125 296.6875 C-175.63125113 295.47439372 -174.95034784 294.26109332 -174.26977539 293.04760742 C-168.21011676 282.27005076 -161.98921956 271.58687214 -155.72070312 260.9296875 C-153.43937477 257.0454735 -151.17186359 253.15328534 -148.90478516 249.26074219 C-145.94043976 244.17154188 -142.9700784 239.08585593 -140 234 C-139.66979858 233.43434326 -139.33959717 232.86868652 -138.99938965 232.28588867 C-130.67956797 218.03378412 -122.32514824 203.80582281 -113.80712891 189.67089844 C-110.28924685 183.8296425 -106.79636957 177.97467152 -103.33203125 172.1015625 C-101.7009368 169.33829589 -100.06937591 166.57530518 -98.4375 163.8125 C-98.03431549 163.12956879 -97.63113098 162.44663757 -97.21572876 161.74301147 C-92.07792443 153.0505597 -86.80890202 144.47227134 -81.3125 136 C-77.0931279 129.48887264 -73.3007896 122.98420845 -69.97387695 115.97705078 C-66.02424967 107.75049642 -61.12272856 100.07362893 -56.37939453 92.2890625 C-54.50706914 89.18199651 -52.71877798 86.0352139 -50.9375 82.875 C-47.98454557 77.65709909 -44.89848798 72.53947789 -41.75 67.4375 C-37.74774704 60.94416924 -33.89021852 54.38348546 -30.125 47.75 C-11.02844819 14.18890529 -11.02844819 14.18890529 0 0 Z M-3 119 C-4.28939111 120.49322755 -4.28939111 120.49322755 -5.546875 122.49609375 C-6.30871094 123.6560083 -6.30871094 123.6560083 -7.0859375 124.83935547 C-7.63507813 125.69674316 -8.18421875 126.55413086 -8.75 127.4375 C-9.61238281 128.77385498 -9.61238281 128.77385498 -10.4921875 130.13720703 C-16.210405 139.12143025 -21.35740706 148.40200629 -26.5078125 157.71875 C-40.43216511 182.87442783 -40.43216511 182.87442783 -47.1875 191.6875 C-51.05973838 196.778331 -53.83520248 202.2434022 -56.73608398 207.91796875 C-60.47847803 215.16715819 -64.56564437 222.18607463 -68.75 229.1875 C-69.09180298 229.75994446 -69.43360596 230.33238892 -69.7857666 230.92218018 C-71.17202533 233.24332918 -72.55890886 235.5641019 -73.94720459 237.8840332 C-79.72013178 247.53729227 -85.35889695 257.26934508 -91 267 C-91.56299805 267.96824707 -92.12599609 268.93649414 -92.70605469 269.93408203 C-94.35079873 272.76564224 -95.98892302 275.60092498 -97.625 278.4375 C-98.11000977 279.2713623 -98.59501953 280.10522461 -99.09472656 280.96435547 C-102.08677206 286.17558947 -104.67202611 291.46008492 -107 297 C-94.98655327 294.44158079 -83.07457421 291.56188922 -71.18847656 288.46264648 C-51.47380193 283.41880233 -32.04586022 282.7915197 -11.8125 282.8125 C-10.74141998 282.81310425 -9.67033997 282.8137085 -8.56680298 282.81433105 C22.13754584 282.86140028 51.64178579 286.37598739 81.87353516 291.69287109 C88.23274885 292.79092166 94.56594299 293.50608968 101 294 C90.24541934 270.85030942 76.19311606 249.19946507 62.91796875 227.43359375 C59.1083004 221.18617756 55.34063793 214.91452909 51.58544922 208.63427734 C48.42665373 203.35897177 45.23835819 198.10235171 42.03700256 192.85276794 C7.28043201 135.84963441 7.28043201 135.84963441 -1 119 C-1.66 119 -2.32 119 -3 119 Z " fill="#00AF00" transform="translate(681,0)"/>
<path d="M0 0 C1.06775665 -0.00637985 2.13551331 -0.0127597 3.23562622 -0.01933289 C4.94212845 -0.02100212 4.94212845 -0.02100212 6.68310547 -0.02270508 C7.86371552 -0.02603348 9.04432556 -0.02936188 10.26071167 -0.03279114 C12.75030122 -0.03784329 15.23989751 -0.04019999 17.72949219 -0.04003906 C21.54356937 -0.04223246 25.35736041 -0.06042546 29.17138672 -0.0793457 C31.59195865 -0.08227855 34.01253195 -0.08426407 36.43310547 -0.08520508 C37.57482208 -0.09239059 38.7165387 -0.09957611 39.89285278 -0.10697937 C41.48503128 -0.10236443 41.48503128 -0.10236443 43.109375 -0.09765625 C44.04169952 -0.09908127 44.97402405 -0.10050629 45.93460083 -0.10197449 C48.62242217 0.16483167 50.18005326 0.65703448 52.42529297 2.14526367 C54.07037855 4.70825932 55.51491508 7.20761641 56.92529297 9.89526367 C57.56615845 11.08116089 57.56615845 11.08116089 58.2199707 12.29101562 C59.14443436 14.00312698 60.06409152 15.71784038 60.97949219 17.43481445 C63.45772208 22.08076317 65.97189468 26.70713186 68.48779297 31.33276367 C68.99834229 32.27216797 69.5088916 33.21157227 70.03491211 34.17944336 C73.90283457 41.26433162 77.97371786 48.19301476 82.17675781 55.08227539 C84.71117426 59.26995997 87.18889535 63.49145877 89.67529297 67.70776367 C90.79373747 69.6036236 91.91222749 71.49945668 93.03076172 73.39526367 C93.5919873 74.3465918 94.15321289 75.29791992 94.73144531 76.27807617 C96.39271877 79.09012511 98.05860085 81.89938747 99.72607422 84.70776367 C109.35769893 100.93928772 118.94265099 117.19811778 127.70654297 133.91870117 C130.35844869 138.89705146 133.17167331 143.76921949 136.11279297 148.58276367 C138.658322 152.80631556 141.08722957 157.0883074 143.48779297 161.39526367 C147.05667324 167.78830059 150.74582085 174.10215372 154.48779297 180.39526367 C159.48464087 188.80844437 164.39096519 197.26981347 169.23779297 205.77026367 C169.73931885 206.64983734 169.73931885 206.64983734 170.25097656 207.54718018 C171.95923685 210.54411188 173.66622556 213.54176556 175.37255859 216.53979492 C183.9411423 231.59331719 192.53642044 246.63198057 201.17529297 261.64526367 C201.79291504 262.7191333 202.41053711 263.79300293 203.046875 264.89941406 C206.40367893 270.71421289 209.82771625 276.47900706 213.33349609 282.20507812 C217.57813778 289.15140985 221.62420429 296.12796273 225.17529297 303.45776367 C225.51101318 304.13331299 225.8467334 304.8088623 226.19262695 305.50488281 C228.25333067 309.92719192 228.54774677 313.32310514 228.42529297 318.14526367 C193.1192215 318.31460037 157.81312409 318.47809811 122.50700063 318.63621932 C120.4940223 318.64523577 118.48104402 318.65426255 116.46806574 318.66328955 C48.43307318 318.96817752 -19.60138583 319.24916176 -87.63720703 319.20776367 C-88.35675992 319.20733944 -89.07631282 319.20691521 -89.81767035 319.20647812 C-107.07003064 319.19612056 -124.3223724 319.1772174 -141.57470703 319.14526367 C-143.73950515 315.2566229 -145.90003924 311.36565033 -148.05702209 307.47267151 C-148.78795243 306.15477697 -149.51994943 304.83747333 -150.25312805 303.52082825 C-168.49403338 270.75566946 -168.49403338 270.75566946 -169.57470703 263.14526367 C-167.76611328 260.81323242 -167.76611328 260.81323242 -165.13720703 258.33276367 C-164.29287109 257.52194336 -163.44853516 256.71112305 -162.57861328 255.87573242 C-160.33586697 253.81006529 -158.04421775 251.80521296 -155.74267578 249.80541992 C-151.49886889 246.10955647 -147.4055204 242.26934604 -143.32470703 238.39526367 C-138.74154242 234.05574574 -134.14879 229.73442381 -129.46069336 225.50830078 C-125.20942103 221.67329458 -121.21650059 217.81368118 -117.53955078 213.42651367 C-115.39628702 210.93811201 -113.1653961 208.5504281 -110.91577148 206.15844727 C-97.20191054 191.56856931 -85.57486435 175.69698004 -74.36108398 159.14575195 C-71.41528609 154.80360085 -68.41308252 150.51933806 -65.30932617 146.28881836 C-61.27813714 140.79250115 -58.1521565 135.48149362 -55.57470703 129.14526367 C-54.91470703 128.81526367 -54.25470703 128.48526367 -53.57470703 128.14526367 C-52.5410335 125.84580428 -51.6058104 123.5576996 -50.69970703 121.20776367 C-48.06567649 114.56925579 -45.18871709 108.08210932 -42.14941406 101.61914062 C-28.65811076 72.92763559 -21.52278279 43.54422349 -14.74462891 12.71850586 C-14.47328125 11.49035156 -14.20193359 10.26219727 -13.92236328 8.99682617 C-13.68525635 7.91224121 -13.44814941 6.82765625 -13.20385742 5.71020508 C-12.57470703 3.14526367 -12.57470703 3.14526367 -11.57470703 1.14526367 C-7.70110201 0.26620556 -3.96172749 0.01616988 0 0 Z M25.42529297 70.14526367 C20.36129478 80.37246061 16.30098918 90.72571169 12.60159302 101.51480103 C0.90705948 135.43493913 -15.95382169 165.70723136 -35.85351562 195.52563477 C-37.67066499 198.29131032 -39.42374279 201.09217691 -41.17626953 203.89916992 C-43.85290651 208.121255 -46.65676297 211.88754973 -49.94970703 215.64526367 C-50.91157624 216.75252791 -51.87250134 217.86061293 -52.83251953 218.96948242 C-53.29948242 219.50621582 -53.76644531 220.04294922 -54.24755859 220.59594727 C-56.1662934 222.83588308 -57.99000063 225.14880298 -59.82470703 227.45776367 C-63.72335813 232.2712607 -67.92723542 236.73013011 -72.19970703 241.20776367 C-81.67610072 250.04403681 -81.67610072 250.04403681 -86.57470703 261.14526367 C-78.55937295 262.22942643 -70.60172524 262.35564451 -62.52294922 262.44238281 C-61.01157151 262.46186385 -59.50019868 262.48172629 -57.98883057 262.50193787 C-53.89093761 262.55557212 -49.79299672 262.60363471 -45.69502163 262.65051579 C-41.34492487 262.7010652 -36.99488579 262.75620464 -32.64483643 262.81065369 C-25.29434659 262.90194479 -17.9438206 262.98965561 -10.59326172 263.07519531 C-3.15961999 263.16173515 4.27396768 263.25175762 11.70751953 263.34570312 C53.61506583 263.87501286 95.51367102 264.32159241 137.42529297 264.14526367 C133.59949194 254.7495006 133.59949194 254.7495006 129.11279297 245.65698242 C128.2224939 243.99795898 128.2224939 243.99795898 127.31420898 242.30541992 C126.6908667 241.15944336 126.06752441 240.0134668 125.42529297 238.83276367 C124.75835212 237.59849283 124.09160766 236.36411586 123.42504883 235.12963867 C117.24603966 223.71396867 110.86948717 212.41303295 104.42529297 201.14526367 C103.14508177 198.89931998 101.86514508 196.65321979 100.58544922 194.40698242 C96.54244483 187.3137892 92.48607545 180.22829087 88.42529297 173.14526367 C87.79333008 172.0424707 87.16136719 170.93967773 86.51025391 169.8034668 C79.44704975 157.48794772 72.30755803 145.22215582 65.05029297 133.02026367 C58.83921801 122.5769167 52.79970765 112.05985606 46.92236328 101.42602539 C38.39798157 84.96494849 38.39798157 84.96494849 27.42529297 70.14526367 C26.76529297 70.14526367 26.10529297 70.14526367 25.42529297 70.14526367 Z " fill="#00AF00" transform="translate(1126.57470703125,858.854736328125)"/>
<path d="M0 0 C8.59001532 3.43600613 12.43612953 15.47354941 15.94384766 23.48632812 C22.13200472 38.14704143 26.80684886 53.28200427 30.5 68.75 C30.75539551 69.79607422 31.01079102 70.84214844 31.27392578 71.91992188 C32.88672231 79.03300058 33.29168692 85.71754994 33 93 C28.74358681 91.37701663 26.19202751 89.57062892 22.94140625 86.4375 C20.4644014 84.60341995 17.92265531 83.92406573 15 83 C15.01879211 84.18787613 15.01879211 84.18787613 15.03796387 85.39974976 C15.20449162 96.05799789 15.35676223 106.71641467 15.5 117.375 C15.51781588 118.69979496 15.51781588 118.69979496 15.53599167 120.05135345 C15.99279244 154.40941889 16.08724226 188.7641799 16.0625 223.125 C16.06164398 224.32233513 16.06078796 225.51967026 16.05990601 226.75328827 C16.04857278 241.50220748 16.02858187 256.25110444 16 271 C16.76923294 271.14667114 17.53846588 271.29334229 18.33100891 271.44445801 C23.47558183 272.51528447 28.29886787 274.60725846 33.1875 276.5 C34.27353516 276.89703125 35.35957031 277.2940625 36.47851562 277.703125 C45.72910247 281.30335339 54.14240356 286.48865054 58.625 295.6875 C65.5327355 318.99701505 57.00326912 346.65146502 46.1015625 367.2734375 C41.0056684 376.52886104 34.22302087 384.35138026 27 392 C26.27554687 392.80050781 25.55109375 393.60101562 24.8046875 394.42578125 C13.35585471 406.59259169 -0.84401621 415.23952674 -16 422 C-17.18722656 422.54269531 -18.37445312 423.08539062 -19.59765625 423.64453125 C-39.86394299 432.35528561 -62.75381669 435.79345228 -84.6953125 436.59375 C-87.76688681 437.13518005 -89.5541668 438.05650964 -92 440 C-94.06533165 444.9261494 -94.64161693 449.90100024 -95.26171875 455.15625 C-95.49128796 456.98782456 -95.72179443 458.81928183 -95.953125 460.65063477 C-96.13198242 462.08308029 -96.13198242 462.08308029 -96.31445312 463.54446411 C-101.77482234 506.80529341 -110.17053883 558.36927784 -145.50390625 588.16015625 C-154.60686063 594.86984563 -163.98416414 599.3180152 -175 602 C-176.13501953 602.28617188 -176.13501953 602.28617188 -177.29296875 602.578125 C-190.72623649 604.67162127 -204.12574925 603.01287496 -217 599 C-217.64855957 598.80164551 -218.29711914 598.60329102 -218.96533203 598.39892578 C-245.53085067 590.01508021 -279.74038106 570.3330516 -297 548 C-297.36709025 546.6755629 -297.70510753 545.34235886 -298 544 C-285.20693957 546.91808287 -272.98893264 550.96220221 -260.63891602 555.36376953 C-239.1062962 563.13163624 -239.1062962 563.13163624 -216.5 565.5 C-215.62255127 565.48646484 -214.74510254 565.47292969 -213.84106445 565.45898438 C-194.46000011 564.85535503 -177.50544962 557.83962943 -163 545 C-162.03191406 544.23300781 -161.06382812 543.46601562 -160.06640625 542.67578125 C-156.75709145 539.92237695 -154.17357405 536.78224224 -151.5625 533.375 C-151.08514404 532.7574585 -150.60778809 532.13991699 -150.1159668 531.50366211 C-133.72471262 510.04677604 -119.99080475 482.37841364 -119.8125 454.8125 C-119.79832031 453.80832031 -119.78414062 452.80414062 -119.76953125 451.76953125 C-120.0035088 448.95783497 -120.46352189 447.3451508 -122 445 C-130.77074555 440.61462723 -144.14877371 444.88213443 -152.96972656 447.22119141 C-161.24230706 449.34302512 -170.3754867 450.98552624 -178.09765625 446.4375 C-188.75595392 438.38359129 -194.25058213 425.86697219 -196.33203125 412.9375 C-198.60930835 395.93383096 -196.1205469 378.12250688 -186.3125 363.6875 C-178.95739465 354.7165003 -168.611828 350.75310979 -158 347 C-157.28199219 346.73058594 -156.56398438 346.46117187 -155.82421875 346.18359375 C-146.26467741 343.15251967 -133.0075624 343.74010587 -124 348 C-109.98371783 355.65945531 -104.89540175 371.40096447 -99.546875 385.4296875 C-99.10714355 386.58073975 -98.66741211 387.73179199 -98.21435547 388.91772461 C-97.33614913 391.22561758 -96.46511828 393.53625657 -95.60205078 395.84985352 C-93.45145813 401.54692566 -91.22811533 406.83055264 -88 412 C-60.07201322 413.87226727 -31.96302371 395.93274946 -11 379 C-10.4436084 378.55575684 -9.8872168 378.11151367 -9.31396484 377.65380859 C5.26040914 365.94046419 20.80834653 350.72517181 23.81640625 331.265625 C23.87699219 330.51796875 23.93757813 329.7703125 24 329 C24.09152344 327.98421875 24.18304687 326.9684375 24.27734375 325.921875 C24.6485486 318.135627 23.53044896 312.4171346 19 306 C13.02016212 299.60296413 4.08438442 296.39640686 -4.578125 295.83203125 C-15.63539034 295.75120329 -25.41811611 297.6953698 -34.234375 304.80078125 C-40.54202114 311.09657091 -42.69601694 318.65762591 -45 327 C-49.01154401 341.3952714 -49.01154401 341.3952714 -54 346 C-62.81041368 348.93680456 -75.81293762 348.34784386 -84.11328125 344.27734375 C-88.07651275 341.59416218 -90.46930738 338.59207786 -92 334 C-93.86978707 314.85243368 -86.43108209 294.66277951 -74.4609375 279.65625 C-62.41062094 266.64955911 -37.83144813 269.59772522 -21.63647461 268.875 C-18.94365236 268.75387859 -16.25113045 268.62728924 -13.55859375 268.5 C-12.31341225 268.44682617 -12.31341225 268.44682617 -11.04307556 268.39257812 C-6.88756039 268.28680998 -6.88756039 268.28680998 -3 267 C-2.86714346 240.94594642 -3.18098997 214.92858848 -3.86883545 188.88378906 C-3.96108469 185.34535406 -4.04841333 181.80680466 -4.13567924 178.26824379 C-4.5477961 161.58629067 -5.00859527 144.90965343 -5.66221619 128.23513794 C-6.04907112 118.1921015 -6.26347056 108.14854076 -6.44528198 98.09997559 C-6.71720421 83.31577791 -7.00724175 68.53052335 -7.4375 53.75 C-7.46457031 52.5861377 -7.49164062 51.42227539 -7.51953125 50.22314453 C-7.55304688 49.17497559 -7.5865625 48.12680664 -7.62109375 47.046875 C-7.6461499 46.15838867 -7.67120605 45.26990234 -7.69702148 44.35449219 C-8.13405323 40.95825194 -9.15114165 38.76652105 -11.69140625 36.47265625 C-12.93921462 35.53224117 -14.18922289 34.59473801 -15.44140625 33.66015625 C-17.50124002 31.46609772 -17.71611932 29.97691832 -18 27 C-17.07543945 24.89111328 -17.07543945 24.89111328 -15.61328125 22.8203125 C-15.08669922 22.05589844 -14.56011719 21.29148437 -14.01757812 20.50390625 C-13.45490234 19.71886719 -12.89222656 18.93382812 -12.3125 18.125 C-11.22315318 16.56657502 -10.13587918 15.00669888 -9.05078125 13.4453125 C-8.52693848 12.69668945 -8.0030957 11.94806641 -7.46337891 11.17675781 C-6.1190069 9.17702127 -4.90407167 7.15791463 -3.73046875 5.0546875 C-2 2 -2 2 0 0 Z " fill="#FBFDFC" transform="translate(861,496)"/>
<path d="M0 0 C0.33 0 0.66 0 1 0 C1.23258498 6.93232466 0.61563244 13.27457742 -0.75 20.0625 C-1.11587047 22.01668654 -1.48040463 23.97112364 -1.84375 25.92578125 C-2.40932606 28.92150682 -2.98288415 31.91460742 -3.58203125 34.90380859 C-10.07934346 67.59479187 -11.34782869 107.08594597 7.16796875 136.33203125 C7.77253906 137.21246094 8.37710938 138.09289062 9 139 C9.59425781 139.87011719 10.18851563 140.74023438 10.80078125 141.63671875 C22.67422527 157.68922174 42.5663299 167.07992354 62 170 C66.04600931 170.29177952 70.06953075 170.33436574 74.125 170.3125 C75.22448975 170.30686035 76.32397949 170.3012207 77.45678711 170.29541016 C98.54658904 169.98292281 121.26668586 163.86908307 137.0546875 149.15625 C143.48249349 142.031453 145.37773394 134.82160171 145.2734375 125.4140625 C143.88856035 108.12288205 126.23660708 91.18172716 114 80 C112.73128885 78.99730893 111.46052769 77.99720502 110.1875 77 C105.23055373 72.85603809 104.02213953 67.16967104 103 61 C102.93466565 59.06348981 102.91415697 57.12497139 102.9375 55.1875 C102.94652344 54.21167969 102.95554687 53.23585938 102.96484375 52.23046875 C102.97644531 51.49441406 102.98804688 50.75835938 103 50 C104.76102052 49.50865354 106.52210642 49.01754067 108.28344727 48.52734375 C109.86764803 48.0859941 111.45145983 47.6432463 113.03491211 47.19921875 C117.60480469 45.92287494 122.18146675 44.68742864 126.77734375 43.5078125 C127.7401123 43.25660645 128.70288086 43.00540039 129.69482422 42.74658203 C131.55977685 42.2610529 133.42721523 41.78494049 135.29736328 41.31982422 C142.19627356 39.50686959 149.19181107 37.24575683 153.98046875 31.7109375 C154.57794922 30.55464844 154.57794922 30.55464844 155.1875 29.375 C155.65671875 28.51003906 156.1259375 27.64507813 156.609375 26.75390625 C157.06828125 25.84511719 157.5271875 24.93632813 158 24 C165.87845304 8.56077348 165.87845304 8.56077348 173 5 C178.21952421 4.23356429 182.68795913 4.24882892 187.125 7.3125 C202.92322672 20.94919872 210.54909658 43.83802268 213 64 C213.30167202 68.5460806 213.36985878 73.06988222 213.375 77.625 C213.39949219 78.77484375 213.42398438 79.9246875 213.44921875 81.109375 C213.47800639 89.53455723 212.45020397 96.80810152 206.96484375 103.47265625 C206.29582031 103.99730469 205.62679687 104.52195312 204.9375 105.0625 C203.93009766 105.88427734 203.93009766 105.88427734 202.90234375 106.72265625 C197.43271903 110.39527901 190.29054556 109.47687525 184 109 C172.70067952 106.21747183 163.9999769 94.45672627 158.234375 85.11230469 C154.22902757 78.25821727 150.66059775 71.15135827 147.09399414 64.06201172 C145.93416522 61.79286097 145.93416522 61.79286097 144 59 C135.71602066 59.16567959 129.12502726 63.16729573 122 67 C123.51086757 78.00774947 134.17955087 86.39863549 141.73828125 93.78125 C144.75944281 96.73671559 147.58327913 99.80091967 150.3046875 103.03515625 C151.60159585 104.53825509 152.95035814 105.9967561 154.3203125 107.43359375 C170.69503135 124.68463548 177.55248273 141.6053706 177.27734375 165.34375 C176.57468968 189.7303909 167.51484006 213.92027154 150.54296875 231.62890625 C137.57740349 243.71815066 122.26834483 249.44415733 104.6328125 249.203125 C71.61645179 247.35704892 44.51253456 227.70872281 23 204 C-10.10274882 165.0293074 -23.52179675 110.85453462 -19.53515625 60.62182617 C-17.43017094 38.78952789 -10.82670944 18.99478904 0 0 Z " fill="#FBFDFC" transform="translate(584,542)"/>
<path d="M0 0 C5.96985611 0.71117413 9.15019542 3.54671253 13 8 C29.21829285 32.48587731 49.96886279 73.60537084 49.125 103.5625 C49.10695313 104.40941406 49.08890625 105.25632812 49.0703125 106.12890625 C49.04710937 106.74636719 49.02390625 107.36382813 49 108 C45.10397709 107.60244664 42.04273942 107.01874536 38.4375 105.4375 C34.89037031 103.95415485 32.78938641 103.57895707 29 104 C27.65013421 104.63252239 26.31307014 105.29425995 25 106 C23.89435493 119.24317089 27.70739672 131.39248405 31.08203125 144.0625 C36.37999145 164.32561471 38.99912134 185.17973683 41 206 C41.09788818 206.98790527 41.19577637 207.97581055 41.29663086 208.99365234 C42.23670444 219.96425228 42.18609016 230.95117063 42.18530273 241.95458984 C42.18747311 245.33313922 42.20564016 248.71135251 42.22460938 252.08984375 C42.26311172 266.82333986 41.5253645 281.34630695 40 296 C39.92665436 296.7125293 39.85330872 297.42505859 39.77774048 298.15917969 C34.86708 344.71690741 20.95639287 388.26196736 0 430 C-0.4650293 430.92731934 -0.93005859 431.85463867 -1.40917969 432.81005859 C-2.71771085 435.40136243 -4.04139358 437.98402329 -5.375 440.5625 C-5.75527344 441.3054834 -6.13554688 442.0484668 -6.52734375 442.81396484 C-9.20264426 447.89074373 -12.25407712 452.6361098 -16 457 C-16.33 457 -16.66 457 -17 457 C-17.21833795 451.69214406 -16.46445795 447.12085806 -15.0234375 442.05078125 C-14.5975591 440.48248415 -14.17254813 438.91395131 -13.74829102 437.34521484 C-13.52392365 436.52543152 -13.29955627 435.70564819 -13.06838989 434.86102295 C-8.02056025 416.30795516 -4.35937244 397.76094113 -1.55664062 378.75 C-1.08745611 375.58917804 -0.59222021 372.43498206 -0.078125 369.28125 C2.518129 352.96443748 3.71795707 336.46184148 5 320 C5.06423157 319.17890747 5.12846313 318.35781494 5.19464111 317.51184082 C9.887625 257.16347955 12.35116334 196.4398695 8 136 C7.9514386 135.30769287 7.9028772 134.61538574 7.85284424 133.90209961 C6.75512002 118.36891011 4.88694276 103.05781259 2.0625 87.75 C1.94120728 87.08300079 1.81991455 86.41600159 1.69494629 85.72879028 C-0.84012846 71.98017788 -3.04447989 62.80206871 -13.83203125 53.703125 C-16 51 -16 51 -16.13671875 47.921875 C-15.13249856 43.5655643 -13.14840025 39.5293065 -11.37695312 35.44287109 C-8.82466058 29.06123466 -7.0913788 22.42710925 -5.25 15.8125 C-4.65456974 13.69143011 -4.05701786 11.57100635 -3.45574951 9.45158386 C-2.91940411 7.55860435 -2.38968857 5.66375005 -1.86035156 3.76879883 C-1 1 -1 1 0 0 Z " fill="#FAFDFB" transform="translate(957,559)"/>
<path d="M0 0 C9 25.83093525 9 25.83093525 9 36 C8.39526855 36.01458252 7.79053711 36.02916504 7.16748047 36.04418945 C4.40270735 36.11909188 1.63908643 36.21561073 -1.125 36.3125 C-2.55199219 36.34633789 -2.55199219 36.34633789 -4.0078125 36.38085938 C-9.31464487 36.58355089 -13.56874526 36.78568686 -18 40 C-19.80026295 42.34905278 -21.27655294 44.52627947 -22.75 47.0625 C-23.29914063 47.9606543 -23.29914063 47.9606543 -23.859375 48.87695312 C-25.27758665 51.23053133 -26.63889278 53.61289098 -28 56 C-28.31795532 56.54958374 -28.63591064 57.09916748 -28.96350098 57.66540527 C-34.77981496 67.74437412 -40.09841716 78.05279203 -45.265625 88.4765625 C-45.58733421 89.12520452 -45.90904343 89.77384655 -46.2405014 90.44214439 C-49.25293716 96.51960837 -52.25569811 102.60182623 -55.24853516 108.68896484 C-99.25566756 198.13947648 -99.25566756 198.13947648 -136.91796875 213.1640625 C-149.42753715 217.0270461 -160.32629419 215.10258285 -171.96484375 209.59765625 C-189.89913284 199.95885961 -202.64785744 183.68791951 -209.19140625 164.5078125 C-210.02477241 160.8925332 -210.2013294 157.76447592 -210.125 154.0625 C-210.10695313 152.91910156 -210.08890625 151.77570313 -210.0703125 150.59765625 C-210.04710937 149.74042969 -210.02390625 148.88320313 -210 148 C-207.0839697 151.52993141 -205.17353392 155.46987726 -203.1875 159.5625 C-202.47521158 161.00322444 -201.76166406 162.44332706 -201.046875 163.8828125 C-200.69818359 164.58567383 -200.34949219 165.28853516 -199.99023438 166.01269531 C-193.64937931 178.7381786 -186.36679545 192.11708696 -172.0625 196.9375 C-159.79445195 199.98088326 -147.59447941 197.22857358 -136.78515625 190.9140625 C-101.67737675 166.7866965 -83.93816859 117.72541618 -68 80.0625 C-51.92975446 42.16420175 -51.92975446 42.16420175 -44.375 27.8125 C-43.73691406 26.55856445 -43.73691406 26.55856445 -43.0859375 25.27929688 C-36.97437299 13.59274867 -29.92719985 5.87406786 -17.6875 0.5625 C-11.80739535 -0.33446512 -5.93490604 -0.14816686 0 0 Z " fill="#FAFDFB" transform="translate(541,635)"/>
<path d="M0 0 C1.10601563 -0.00515625 2.21203125 -0.0103125 3.3515625 -0.015625 C6.32889849 0.24594974 7.95291687 0.53708536 10.375 2.25 C17.81928516 13.10016726 16.71416223 28.3162573 16.625 40.875 C16.62123352 41.6766861 16.61746704 42.47837219 16.61358643 43.30435181 C16.3436866 92.22522212 0.29734483 137.41413814 -34.08203125 172.77734375 C-52.93669886 190.56889577 -79.76779846 203.5599736 -106 203.3125 C-107.24523437 203.30347656 -108.49046875 203.29445313 -109.7734375 203.28515625 C-111.18496094 203.26775391 -111.18496094 203.26775391 -112.625 203.25 C-111.62403756 200.57244306 -110.97494161 199.44766166 -108.44873047 198.02075195 C-107.55557129 197.68003662 -106.66241211 197.33932129 -105.7421875 196.98828125 C-104.25017822 196.40046875 -104.25017822 196.40046875 -102.72802734 195.80078125 C-101.66277832 195.39214844 -100.5975293 194.98351562 -99.5 194.5625 C-79.58729035 186.58206916 -62.18839826 176.10980883 -46.625 161.25 C-45.72587891 160.445625 -45.72587891 160.445625 -44.80859375 159.625 C-26.8752802 142.98155355 -16.77413804 117.38883279 -15.40185547 93.33935547 C-15.25989618 89.08038459 -15.24056633 84.82349192 -15.25 80.5625 C-15.24921448 79.8032019 -15.24842896 79.04390381 -15.24761963 78.26159668 C-15.26406354 64.88884712 -16.67247747 52.06325546 -19.13769531 38.90869141 C-23.3891727 15.71300567 -23.3891727 15.71300567 -19.9375 8.9375 C-14.21773861 2.29020974 -8.76295569 -0.04104429 0 0 Z " fill="#FAFDFB" transform="translate(577.625,803.75)"/>
<path d="M0 0 C11.28845553 8.10503295 16.0167898 24.22583509 20 37 C20.25974609 37.82967285 20.51949219 38.6593457 20.78710938 39.51416016 C27.39848258 61.58747881 26.94334356 85.59932041 22 108 C21.85546387 108.6919043 21.71092773 109.38380859 21.56201172 110.09667969 C16.08785238 135.9579906 16.08785238 135.9579906 8 143 C7.77115571 136.40165643 8.06403464 130.10107493 9 123.5625 C13.29101919 91.3213593 9.0436951 62.6345982 -8.70703125 35.37890625 C-11.54068992 30.16531673 -10.47699728 24.86087829 -9.05078125 19.296875 C-6.91867582 12.28085248 -4.28587312 6.00022237 0 0 Z " fill="#F9FCFA" transform="translate(696,403)"/>
<path d="M0 0 C8.34855563 4.4019657 12.45169675 9.78375706 15.4375 18.8125 C16.42156573 25.66606416 16.80428676 32.43311683 13.1875 38.5625 C10.13047414 42.53232795 7.37698017 44.80038235 2.4375 45.8125 C-5.94683117 46.67306185 -12.65815923 45.88306755 -19.5625 40.8125 C-25.3806462 35.15426056 -28.00770378 28.25086976 -29 20.3125 C-28.20759588 13.97326703 -26.03138922 8.77736454 -21.25 4.4375 C-14.52780072 -0.7223971 -8.20696674 -2.73565558 0 0 Z " fill="#02B002" transform="translate(720.5625,874.1875)"/>
<path d="M0 0 C5.03730834 2.89178812 8.60011995 8.10924457 10.33203125 13.609375 C11.49458098 19.99701089 10.96988014 25.9205441 7.6875 31.5625 C3.47478008 36.62004723 -1.8607543 39.43669203 -8.3125 40.5625 C-14.33584925 40.80505098 -19.65144473 39.46710716 -24.3125 35.5625 C-30.03940728 29.26678026 -31.6639092 24.45937378 -31.515625 16.01953125 C-30.97666276 9.50016111 -27.1150615 6.14355354 -22.4453125 2.078125 C-15.9190408 -2.55959189 -7.36329478 -3.10107992 0 0 Z " fill="#F9FDFA" transform="translate(488.3125,590.4375)"/>
<path d="M0 0 C5.26941936 3.88933333 9.33733286 8.37039761 10.625 14.9375 C11.36457132 21.7900905 10.78270216 27.29317759 6.625 32.9375 C2.73006397 37.00062645 -0.50106578 39.73797453 -6.30078125 40.140625 C-14.21248326 40.25012953 -18.97580165 39.94144273 -25.0625 34.5625 C-30.1963267 28.73491293 -31.72776075 23.80329809 -31.578125 16.171875 C-30.99923656 9.80410221 -27.06519546 6.42072899 -22.5078125 2.453125 C-15.88913101 -2.25026038 -7.59309114 -2.39041758 0 0 Z " fill="#FAFDFB" transform="translate(828.375,693.0625)"/>
<path d="M0 0 C9.17503048 5.73439405 14.33017107 17.81948169 17.25 27.9375 C18.83764664 35.10336458 19.01900003 41.63658328 15 48 C8.7077493 48.68642735 5.20574577 47.6575442 0.10546875 43.8828125 C-7.56113216 37.02696531 -11.10295155 27.24694194 -12.34765625 17.19140625 C-12.5688682 10.87243874 -11.25566143 6.32978592 -7.6875 1.0625 C-4.94576594 -0.663777 -3.17158971 -0.49750427 0 0 Z " fill="#03B103" transform="translate(763,582)"/>
</svg>
