<?xml version="1.0" encoding="UTF-8"?>
<svg version="1.1" xmlns="http://www.w3.org/2000/svg" width="512" height="509">
<path d="M0 0 C23.01726537 21.56699052 28.61197011 58.68312851 32.5 88.375 C32.62802002 89.34638916 32.75604004 90.31777832 32.88793945 91.31860352 C33.67988094 97.82323922 33.89345804 104.20034351 33.75 110.75 C32.76 109.88375 31.77 109.0175 30.75 108.125 C29.41874789 106.99753798 28.08534449 105.87261207 26.75 104.75 C25.88181641 103.99589844 25.88181641 103.99589844 24.99609375 103.2265625 C-6.97629944 77.12383113 -62.95409073 82.02360677 -101.0859375 85.8359375 C-111.2638991 86.89889827 -121.27781022 88.45172992 -131.25 90.75 C-132.03036621 90.92756836 -132.81073242 91.10513672 -133.61474609 91.28808594 C-161.75369764 97.89170519 -185.55150707 112.84124549 -206.25 132.75 C-206.85279785 133.32556641 -207.4555957 133.90113281 -208.07666016 134.49414062 C-227.50673009 153.1350966 -243.86568207 173.73246487 -245.25 201.75 C-245.62430312 220.54926914 -241.45134872 239.42446393 -229.0625 254.125 C-215.20089071 268.40879028 -196.10687943 274.66763872 -176.5 275.125 C-165.9594998 274.86121272 -156.61353415 272.41375113 -148.25 265.75 C-144.92821941 262.13644138 -142.99859681 258.56484026 -142.6875 253.625 C-143.44347328 248.41718408 -145.38724264 245.55066545 -149.125 241.9375 C-151.89844112 240.38763585 -154.08010462 239.94407523 -157.25 239.75 C-160.05067065 240.58486387 -160.05067065 240.58486387 -162.25 241.75 C-162.58 244.39 -162.91 247.03 -163.25 249.75 C-164.9 248.1 -166.55 246.45 -168.25 244.75 C-166.77948639 238.86794554 -164.36828114 236.79301178 -159.4375 233.5625 C-151.71203308 230.69304086 -144.83199083 231.95394955 -137.25 234.75 C-131.40406119 237.85114052 -126.48628717 242.42244091 -124.25 248.75 C-123.07785499 256.94464213 -124.10090892 263.62691006 -128.25 270.75 C-128.78625 271.78125 -129.3225 272.8125 -129.875 273.875 C-139.79307373 285.88108925 -155.13445633 288.9069786 -169.875 290.375 C-204.01364364 292.75369259 -233.99372708 283.45155763 -260.265625 261.1953125 C-277.73573502 245.94322958 -289.24156306 228.21654713 -295.25 205.75 C-295.42789063 205.09016113 -295.60578125 204.43032227 -295.7890625 203.75048828 C-300.8232004 183.96852379 -299.73826404 161.53635298 -295.25 141.75 C-295.00056641 140.63455811 -295.00056641 140.63455811 -294.74609375 139.49658203 C-289.71903885 117.8197351 -279.74500182 97.65229894 -265.25 80.75 C-264.34536705 79.66227853 -263.44178981 78.57367852 -262.5390625 77.484375 C-252.45681689 65.411239 -241.69727279 54.40461544 -229.25 44.75 C-227.98416061 43.74375922 -226.71855135 42.73722891 -225.453125 41.73046875 C-173.24546344 0.57410916 -61.71505205 -50.07735652 0 0 Z " fill="#0065FE" transform="translate(418.25,97.25)"/>
<path d="M0 0 C1.07121094 0.50917969 2.14242188 1.01835938 3.24609375 1.54296875 C20.9526566 10.49572525 38.08661672 23.90418989 52 38 C50.92032959 37.93941406 49.84065918 37.87882812 48.72827148 37.81640625 C-9.51185167 34.58777215 -62.64438058 36.38136672 -116 63 C-116.8854248 63.43989258 -117.77084961 63.87978516 -118.68310547 64.33300781 C-129.21388052 69.60856196 -139.48286312 75.02437127 -149 82 C-150.051875 82.76828125 -151.10375 83.5365625 -152.1875 84.328125 C-159.90426821 90.06746422 -167.06489906 96.34084848 -174 103 C-174.56364258 103.53641113 -175.12728516 104.07282227 -175.70800781 104.62548828 C-210.38652803 137.78167699 -233.76314315 183.67228954 -235.203125 232.15625 C-235.62350895 261.00744167 -228.63552429 287.47933107 -210 310 C-209.35289062 310.79921875 -208.70578125 311.5984375 -208.0390625 312.421875 C-186.57227294 337.83154428 -152.07117531 353.82676152 -119.25 356.6875 C-117.16756035 356.80822114 -115.08414619 356.91361052 -113 357 C-112.16984375 357.04125 -111.3396875 357.0825 -110.484375 357.125 C-89.67616093 357.64847708 -68.25177477 354.91000622 -52.5 340.0625 C-46.19173352 333.21652266 -43.6743437 326.36587522 -44 317 C-45.04911181 310.54749817 -47.09220406 305.48103107 -52 301 C-61.20065729 295.79744651 -72.45926489 293.95019454 -82.7734375 296.75390625 C-86.76337653 298.4439967 -90.57634047 300.31182245 -93 304 C-93.91720924 307.41356344 -93.91720924 307.41356344 -93 311 C-90.91323221 313.36638432 -88.58340094 315.20084577 -86 317 C-88.3177619 317.7933279 -89.64631941 318.09843318 -92.03515625 317.43359375 C-95.54343675 315.70987212 -97.66352779 314.46264928 -100 311.25 C-101.70869648 305.69673645 -101.78023364 301.20569922 -99.5625 295.875 C-95.72573449 288.9985435 -88.40095882 285.65556357 -81.1015625 283.5234375 C-64.30506667 279.33992367 -43.24567318 281.64901024 -28.33203125 290.6015625 C-19.93893838 296.75930903 -14.11161927 304.71475331 -12 315 C-10.74641569 326.9736132 -11.07609448 338.88311574 -18.625 348.8125 C-35.65148761 366.55722654 -68.33047341 370.71995819 -91.69311523 371.23266602 C-122.56957562 371.47113318 -151.88821482 363.49650554 -179 349 C-179.60585937 348.67773438 -180.21171875 348.35546875 -180.8359375 348.0234375 C-195.19428819 340.31131028 -207.75979236 330.69610786 -220 320 C-220.84691406 319.27683594 -221.69382813 318.55367188 -222.56640625 317.80859375 C-227.51109455 313.5332372 -231.81062766 309.00788417 -236 304 C-236.73734375 303.17371094 -237.4746875 302.34742188 -238.234375 301.49609375 C-256.68811697 280.3683223 -270.55150552 253.42587446 -277.8125 226.375 C-278.08658691 225.35817139 -278.08658691 225.35817139 -278.36621094 224.32080078 C-282.03447917 209.6714597 -283.52865872 195.25938282 -283.375 180.1875 C-283.37001495 179.357948 -283.36502991 178.528396 -283.3598938 177.67370605 C-283.11065617 142.18738053 -273.68796943 109.26920712 -257 78 C-256.07960938 76.24816406 -256.07960938 76.24816406 -255.140625 74.4609375 C-230.84508424 29.98604263 -187.96486871 1.11462556 -140.16894531 -13.12744141 C-94.09728562 -25.81312028 -43.04166304 -20.8554816 0 0 Z " fill="#0000CC" transform="translate(343,33)"/>
<path d="M0 0 C6.27743762 5.89819656 10.16911704 13.08509374 10.86328125 21.7109375 C11.24934707 39.46996522 3.88517119 53.30033103 -3.91015625 68.82666016 C-5.14755691 71.29609941 -6.35963733 73.77538332 -7.5625 76.26171875 C-12.08566414 85.39925758 -17.59662114 93.82619249 -23.3125 102.25 C-23.69570404 102.81581787 -24.07890808 103.38163574 -24.47372437 103.96459961 C-31.00016313 113.56258157 -31.00016313 113.56258157 -33.375 114.75 C-33.32859375 113.57824219 -33.2821875 112.40648437 -33.234375 111.19921875 C-32.78745601 95.25457644 -36.4622426 82.99260268 -47.625 71 C-68.1231335 51.91396014 -97.82397571 47.09769452 -124.75 47.3125 C-125.5531665 47.31520905 -126.35633301 47.31791809 -127.18383789 47.32070923 C-139.57811612 47.38393592 -151.45757264 48.05294384 -163.375 51.75 C-165.18484375 52.31074219 -165.18484375 52.31074219 -167.03125 52.8828125 C-179.52582668 57.29094586 -190.02082181 64.63665142 -200.375 72.75 C-200.97054687 73.18957031 -201.56609375 73.62914062 -202.1796875 74.08203125 C-211.77898091 81.42419351 -218.92760316 92.79190971 -220.66796875 104.765625 C-221.26463587 113.73175788 -217.25968761 121.91460549 -211.625 128.6875 C-206.86903566 133.66005475 -200.43548703 138.23097569 -193.39453125 138.953125 C-187.28583222 139.08286728 -181.38042637 138.61682661 -176.765625 134.21484375 C-175.56229112 132.78503973 -174.45800452 131.2729751 -173.375 129.75 C-174.70988128 126.15608886 -176.33522723 122.99509304 -178.375 119.75 C-171.01584507 120.24061033 -171.01584507 120.24061033 -167.9375 122.6875 C-165.22243245 126.27138916 -164.89604979 128.94788983 -164.98828125 133.375 C-165.6990311 137.74000916 -167.95846623 140.08561359 -171.375 142.75 C-185.08733856 151.30050996 -198.60803347 152.23786505 -214.10546875 148.921875 C-228.85730392 145.25673878 -244.31411562 135.68324116 -252.375 122.75 C-259.6977702 107.26653067 -260.77952273 89.8384295 -255.76953125 73.4453125 C-242.83558031 39.172154 -214.78450611 12.99851628 -182.0546875 -2.3046875 C-162.79097724 -10.9642517 -142.20443524 -16.8831633 -121.375 -20.25 C-120.37605713 -20.42354004 -120.37605713 -20.42354004 -119.35693359 -20.60058594 C-82.82332704 -26.80145494 -29.94919715 -25.06043115 0 0 Z " fill="#17D1FF" transform="translate(439.375,219.25)"/>
<path d="M0 0 C1.80834961 0.16650391 1.80834961 0.16650391 4 1 C5.56469727 3.29052734 5.56469727 3.29052734 7.06640625 6.3359375 C7.62948486 7.45500488 8.19256348 8.57407227 8.77270508 9.72705078 C9.06496979 10.32294006 9.3572345 10.91882935 9.65835571 11.53277588 C11.17590576 14.62483467 12.73811774 17.69419033 14.296875 20.765625 C14.76309013 21.6881456 14.76309013 21.6881456 15.23872375 22.62930298 C18.08501606 28.23419932 21.13978912 33.69963772 24.3125 39.125 C24.77406494 39.91696777 25.23562988 40.70893555 25.71118164 41.52490234 C27.58978362 44.95787599 27.58978362 44.95787599 30 48 C30.34144043 47.36723145 30.68288086 46.73446289 31.03466797 46.08251953 C36.84128803 35.32714188 42.64980127 24.57254164 48.5625 13.875 C49.1510376 12.80403076 49.1510376 12.80403076 49.75146484 11.71142578 C50.81471385 9.79536726 51.89684448 7.89332991 53 6 C53.3491748 5.39961914 53.69834961 4.79923828 54.05810547 4.18066406 C55.08984375 2.5078125 55.08984375 2.5078125 57 0 C57.99 0 58.98 0 60 0 C61.06830916 8.29174891 62.12932963 16.58438382 63.1810236 24.87825489 C63.66958187 28.72928425 64.16065712 32.57995786 64.6574707 36.42993164 C65.13671187 40.14445795 65.60935934 43.85976888 66.07742119 47.57571983 C66.25727547 48.99420893 66.4395151 50.41239766 66.62416267 51.83027077 C66.88211289 53.81418106 67.13084687 55.7992831 67.37915039 57.78442383 C67.52349014 58.91471512 67.6678299 60.04500641 67.81654358 61.20954895 C68 64 68 64 67 67 C64.03 67 61.06 67 58 67 C57.15155709 64.45467126 56.77699016 62.5568605 56.53515625 59.92749023 C56.41998657 58.70623695 56.41998657 58.70623695 56.30249023 57.46031189 C56.22329346 56.5852449 56.14409668 55.71017792 56.0625 54.80859375 C55.88802316 52.95898416 55.71354392 51.10937479 55.5390625 49.25976562 C55.26814497 46.34099869 54.99858122 43.42210987 54.72949219 40.50317383 C54.46876185 37.68799727 54.20329788 34.87329564 53.9375 32.05859375 C53.85830322 31.18150253 53.77910645 30.30441132 53.69750977 29.40074158 C53.38615919 25.06426021 53.38615919 25.06426021 52 21 C40.18815329 42.83825431 40.18815329 42.83825431 29 65 C28.01 65 27.02 65 26 65 C25.75610031 64.50553879 25.51220062 64.01107758 25.26091003 63.50163269 C22.72117065 58.35578231 20.17299233 53.21417578 17.61987305 48.07495117 C16.66815603 46.15643112 15.71859588 44.23683953 14.77124023 42.31616211 C13.40914507 39.55558265 12.03933935 36.79894982 10.66796875 34.04296875 C10.24597702 33.18350143 9.82398529 32.32403412 9.38920593 31.43852234 C8.98901749 30.63791885 8.58882904 29.83731537 8.17651367 29.01245117 C7.82787766 28.3085173 7.47924164 27.60458344 7.12004089 26.87931824 C5.95572317 24.92570785 4.67153551 23.53091477 3 22 C2.88406494 23.1552417 2.76812988 24.3104834 2.64868164 25.50073242 C2.21690187 29.79671906 1.78190483 34.09237493 1.34594727 38.38793945 C1.15789772 40.24527294 0.97071464 42.10269437 0.78442383 43.96020508 C0.51612786 46.63386383 0.24469253 49.30718829 -0.02734375 51.98046875 C-0.10967758 52.80773972 -0.19201141 53.63501068 -0.27684021 54.48735046 C-0.67558775 58.37692706 -1.1334876 62.17992782 -2 66 C-4.31 66 -6.62 66 -9 66 C-8.42577993 57.49756916 -7.57901442 49.08439812 -6.40625 40.64453125 C-6.25466431 39.53567062 -6.10307861 38.42681 -5.94689941 37.28434753 C-5.62940375 34.96917283 -5.31001118 32.65425751 -4.98876953 30.33959961 C-4.49602107 26.78378693 -4.01131487 23.22693871 -3.52734375 19.66992188 C-3.21662094 17.41139292 -2.90543994 15.15292694 -2.59375 12.89453125 C-2.44893188 11.83007278 -2.30411377 10.76561432 -2.15490723 9.66889954 C-2.01806519 8.68995224 -1.88122314 7.71100494 -1.74023438 6.70239258 C-1.62111694 5.84003494 -1.50199951 4.97767731 -1.37927246 4.08918762 C-1 2 -1 2 0 0 Z " fill="#0000CC" transform="translate(179,428)"/>
<path d="M0 0 C6.61064716 5.38075932 11.30688541 11.6228024 12.6875 20.1875 C13.40908903 31.55252715 12.77833636 41.35423634 5.33984375 50.375 C-2.28045983 58.73391456 -11.04782703 62.55573807 -22.41796875 63.22265625 C-33.72051297 63.08537839 -43.29004137 60.6278161 -51.7109375 52.9375 C-58.98545661 44.98875716 -60.6377517 35.22060268 -60.3125 24.75 C-59.35875531 15.62439742 -55.71437888 8.0875969 -49.125 1.6875 C-34.90397628 -9.59529568 -15.29333385 -8.3680506 0 0 Z M-44.3125 8.1875 C-50.01515481 17.90495489 -50.57418577 28.98075492 -48.88671875 39.95703125 C-46.86125388 47.05237139 -42.02255522 52.85128061 -35.75 56.6875 C-29.3668589 59.47468052 -21.53658829 59.27233809 -14.87890625 57.5625 C-7.63321193 54.39868805 -2.89857596 48.14705744 0.0625 41 C3.75693654 31.05714688 3.69042303 21.05546532 -0.3125 11.1875 C-3.9953676 5.6557131 -8.48164652 0.36263897 -15.078125 -1.484375 C-26.99615763 -3.2345756 -36.18103412 -1.02226897 -44.3125 8.1875 Z " fill="#0000CC" transform="translate(463.3125,432.8125)"/>
<path d="M0 0 C8.86900929 5.39664023 14.1310246 11.6665113 17.39453125 21.45703125 C18.0000486 31.31405958 18.52203181 40.66943982 13.39453125 49.45703125 C13.04390625 50.09769531 12.69328125 50.73835938 12.33203125 51.3984375 C7.82878341 58.63803386 -0.41351241 63.48864598 -8.60546875 65.45703125 C-19.6261557 67.36262554 -31.06873655 66.84293286 -40.7421875 60.8125 C-43.34174397 58.92141804 -45.48977857 56.87496289 -47.60546875 54.45703125 C-48.30671875 53.71453125 -49.00796875 52.97203125 -49.73046875 52.20703125 C-55.57810361 43.63050012 -55.64049967 33.50220158 -54.60546875 23.45703125 C-52.87085765 14.83560107 -48.67083715 7.91630723 -41.36328125 2.92578125 C-29.49471338 -3.94759812 -12.80854185 -5.70837377 0 0 Z M-39.35546875 11.2578125 C-45.01975971 21.22342441 -46.29275512 32.67680625 -43.48046875 43.70703125 C-41.05005937 50.68465818 -37.49421389 55.71824145 -31.04296875 59.45703125 C-24.37626104 62.42336424 -17.33094078 62.66421066 -10.28125 60.86328125 C-3.50875373 57.98929462 1.56172982 52.14322738 4.78515625 45.66015625 C8.67288384 35.31113492 8.87114803 25.06304842 4.578125 14.828125 C1.48310286 8.62786612 -2.52399433 5.22354036 -8.73046875 2.37890625 C-19.93906723 -1.21515522 -32.09007066 1.74261785 -39.35546875 11.2578125 Z " fill="#0000CC" transform="translate(144.60546875,429.54296875)"/>
<path d="M0 0 C5 0 5 0 7.5078125 2.203125 C8.39402718 3.20671464 9.26563664 4.22332418 10.125 5.25 C11.09730061 6.36098842 12.06996692 7.4716569 13.04296875 8.58203125 C13.53458496 9.15260254 14.02620117 9.72317383 14.53271484 10.31103516 C16.78321248 12.90154142 19.11060428 15.41529321 21.4375 17.9375 C22.35182127 18.93465862 23.26588085 19.93205725 24.1796875 20.9296875 C27.58102955 24.6361254 30.99513663 28.33079338 34.41381836 32.02124023 C39.31123835 37.31624319 44.14750671 42.66225738 49 48 C49.33 32.16 49.66 16.32 50 0 C51.98 0 53.96 0 56 0 C56 22.11 56 44.22 56 67 C50.35574957 65.87114991 49.91719805 65.23686529 46.625 60.875 C43.49105449 56.85379508 40.31720089 53.19276282 36.66015625 49.65234375 C34.33317944 47.33631742 32.22449076 44.85302088 30.08203125 42.3671875 C27.43954431 39.36278396 24.7218491 36.43241594 22 33.5 C18.0306334 29.22165185 14.11270052 24.91201777 10.3046875 20.48828125 C9.24884029 19.28385674 8.13257488 18.13257488 7 17 C6.67 33.5 6.34 50 6 67 C4.02 67 2.04 67 0 67 C0 44.89 0 22.78 0 0 Z " fill="#0000CC" transform="translate(287,428)"/>
<path d="M0 0 C2.97 0 5.94 0 9 0 C9.33 9.57 9.66 19.14 10 29 C16.17620141 23.68659767 16.17620141 23.68659767 21.8515625 18.02734375 C22.47546875 17.35509766 23.099375 16.68285156 23.7421875 15.99023438 C24.36351563 15.31283203 24.98484375 14.63542969 25.625 13.9375 C27.49371873 11.91369293 29.36478804 9.89251871 31.24658203 7.88085938 C32.38521737 6.65946607 33.51201455 5.42688843 34.62451172 4.18164062 C38.36056034 0.14666047 38.36056034 0.14666047 41.5546875 -0.5859375 C43.06396484 -0.44873047 44.57324219 -0.31152344 46.08251953 -0.17431641 C46.71528809 -0.11679199 47.34805664 -0.05926758 48 0 C42.61359076 6.55377097 36.64114873 12.47246635 30.625 18.4375 C29.59221405 19.46525983 28.55966009 20.49325285 27.52734375 21.52148438 C25.02089713 24.01701598 22.5113292 26.50938082 20 29 C21.71122564 32.63401577 23.79933887 35.12637103 26.5625 38.0625 C30.83945693 42.68407505 34.86004614 47.43847071 38.81640625 52.33984375 C42.09340113 56.3320325 45.53235604 60.17330843 49 64 C48.505 65.485 48.505 65.485 48 67 C44.11127403 67.78501384 40.86813022 67.97330384 37 67 C34.22116651 64.33339726 32.29704739 61.50668402 30.1796875 58.29296875 C28.14427667 55.21796636 26.00737584 52.63141072 23.5 49.9375 C18.81021642 44.79176524 14.40874758 39.38846927 10 34 C9.67 44.56 9.34 55.12 9 66 C6.03 66 3.06 66 0 66 C0 44.22 0 22.44 0 0 Z " fill="#0000CC" transform="translate(36,428)"/>
<path d="M0 0 C11.55 0 23.1 0 35 0 C35 2.31 35 4.62 35 7 C22.13 6.505 22.13 6.505 9 6 C9 13.59 9 21.18 9 29 C16.92 28.67 24.84 28.34 33 28 C33 29.98 33 31.96 33 34 C25.08 34 17.16 34 9 34 C9 44.89 9 55.78 9 67 C6.03 67 3.06 67 0 67 C0 44.89 0 22.78 0 0 Z " fill="#0000CC" transform="translate(360,428)"/>
<path d="M0 0 C2.97 0 5.94 0 9 0 C9 22.11 9 44.22 9 67 C6.03 67 3.06 67 0 67 C0 44.89 0 22.78 0 0 Z " fill="#0000CB" transform="translate(260,428)"/>
</svg>
