<svg version="1.1" id="Layer_1" xmlns="http://www.w3.org/2000/svg" xmlns:xlink="http://www.w3.org/1999/xlink" x="0px" y="0px"
	 width="100%" viewBox="0 0 1024 1024" enable-background="new 0 0 1024 1024" xml:space="preserve">
<path fill="#000000" opacity="1.000000" stroke="none" 
	d="
M726.999878,637.379517 
	C692.501465,637.368469 658.502747,637.294922 624.504883,637.420471 
	C620.151245,637.436584 618.470703,636.537720 618.483215,631.648071 
	C618.681519,553.985596 618.663086,476.322632 618.695923,398.659760 
	C618.699280,390.772797 618.704407,390.765472 626.740356,390.757080 
	C635.739929,390.747711 644.741943,390.874207 653.737976,390.694733 
	C657.477539,390.620117 658.767151,392.207489 658.768921,395.721405 
	C658.782898,423.197784 659.189575,450.678619 658.819458,478.149231 
	C658.491699,502.476501 658.439087,526.800598 658.397217,551.126892 
	C658.393311,553.404663 658.040100,555.744507 659.366882,558.339233 
	C663.780518,551.778076 668.026001,545.470764 672.267700,539.160767 
	C693.922607,506.946686 715.577698,474.732819 737.225525,442.513977 
	C737.875305,441.546906 738.526306,440.565857 739.036621,439.522766 
	C740.312012,436.916168 739.693726,435.300201 736.551453,435.271484 
	C732.385376,435.233429 728.218689,435.253479 724.052307,435.247314 
	C710.886353,435.227844 697.720276,435.236023 684.554688,435.156799 
	C682.639771,435.145294 680.540405,435.721619 678.832886,434.174225 
	C678.180847,432.033875 679.697144,430.680389 680.669250,429.238220 
	C688.398376,417.770905 696.257996,406.391022 703.922729,394.881195 
	C706.010315,391.746429 708.578308,390.677948 712.281982,390.687988 
	C745.113525,390.776855 777.945740,390.766418 810.777100,390.631989 
	C815.414673,390.613007 817.001221,392.259979 817.544983,396.960236 
	C818.549866,405.644897 815.854004,412.572418 810.937012,419.629974 
	C784.461731,457.631134 758.317200,495.863281 732.144470,534.074585 
	C719.152161,553.042969 706.333496,572.130432 693.472229,591.188232 
	C692.481262,592.656738 691.081848,593.978821 691.031006,596.698486 
	C728.430664,596.698486 765.765442,596.698486 802.700439,596.698486 
	C803.779114,598.698669 803.012390,599.651794 802.367554,600.615967 
	C794.958740,611.693604 787.487915,622.730408 780.171448,633.868652 
	C778.375305,636.602966 776.073914,637.338745 772.997559,637.326660 
	C757.831970,637.267029 742.665894,637.347595 726.999878,637.379517 
z"/>
<path fill="#000000" opacity="1.000000" stroke="none" 
	d="
M270.626190,563.388550 
	C289.848633,587.259644 314.582703,596.329407 344.317841,592.545105 
	C346.761505,592.234070 348.801758,592.041504 350.723602,593.987000 
	C358.982574,602.347595 368.714233,608.759766 378.626953,614.942078 
	C381.101685,616.485535 383.976013,617.695374 385.374786,620.577759 
	C384.598175,622.868347 382.490051,623.367981 380.777954,624.229614 
	C362.174072,633.591431 342.395355,635.642944 321.946930,633.695496 
	C300.647095,631.666870 281.369049,624.197693 264.662872,611.032471 
	C237.123428,589.330200 220.711166,561.052612 216.640396,525.947205 
	C213.683884,500.450989 216.970993,475.863678 229.664078,453.414856 
	C249.887604,417.647797 280.268036,396.321045 321.622955,391.549744 
	C327.279510,390.897125 332.912384,390.755615 338.571350,390.754791 
	C426.545380,390.742218 514.519409,390.740295 602.493469,390.758423 
	C604.286438,390.758789 606.163208,390.343567 607.897583,391.391663 
	C608.669678,393.739380 606.801392,395.096039 605.775391,396.667084 
	C598.216248,408.241669 590.428467,419.670044 583.046326,431.355286 
	C580.753845,434.984100 577.821350,435.312256 574.158752,435.310242 
	C491.849792,435.264679 409.539856,435.512634 327.232269,435.176758 
	C289.167053,435.021454 262.874420,463.527557 256.144928,489.310028 
	C249.186981,515.967712 253.728180,540.812195 270.626190,563.388550 
z"/>
<path fill="#000000" opacity="1.000000" stroke="none" 
	d="
M469.986389,614.999817 
	C469.948914,588.512146 469.706360,562.522522 469.936951,536.537109 
	C470.196533,507.288116 489.485077,481.790375 516.572083,474.212250 
	C552.371521,464.196533 588.153198,485.948364 594.610535,522.231201 
	C598.322693,543.089111 592.243958,561.245911 576.140808,575.346436 
	C572.055786,578.923401 572.494812,581.169006 575.300293,585.102661 
	C586.516907,600.829834 597.401184,616.794067 608.406189,632.672119 
	C609.150635,633.746155 610.108765,634.723267 610.150208,636.095276 
	C609.304016,637.744873 607.813049,637.345093 606.576538,637.350769 
	C599.257629,637.384216 591.933044,637.166504 584.621338,637.390564 
	C580.670837,637.511597 578.137329,636.101990 575.994690,632.793091 
	C566.942505,618.813477 557.476990,605.097168 548.631653,590.990479 
	C545.687805,586.295532 542.180847,584.459167 536.892517,584.347168 
	C528.645874,584.172607 520.227478,575.700989 519.902588,567.435913 
	C519.743774,563.397217 521.647766,560.751770 526.086548,560.617920 
	C533.743958,560.387085 541.400574,559.952209 549.057617,559.950012 
	C554.167297,559.948547 558.000793,557.891235 561.204285,554.146729 
	C569.849609,544.041260 571.323975,532.532288 566.842102,520.459106 
	C562.124023,507.749481 552.796387,499.863800 539.116028,498.257477 
	C515.365845,495.468811 497.196136,511.480103 497.458160,535.467712 
	C497.800293,566.780823 498.067993,598.091431 497.935730,629.405334 
	C497.902222,637.336548 497.816986,637.329834 489.843262,637.311462 
	C485.512024,637.301514 481.180695,637.321228 476.849426,637.321167 
	C470.573395,637.320984 470.171234,636.955078 470.062592,630.492676 
	C469.978577,625.496033 470.010040,620.497498 469.986389,614.999817 
z"/>
<path fill="#000000" opacity="1.000000" stroke="none" 
	d="
M424.169189,595.000000 
	C424.144043,607.659546 424.026062,619.819946 424.145142,631.978088 
	C424.185089,636.056213 422.687775,637.635315 418.547028,637.438477 
	C412.896606,637.169739 407.215820,637.196716 401.562714,637.438904 
	C397.342102,637.619812 396.050171,635.760925 396.073944,631.808777 
	C396.152039,618.828186 395.995697,605.846436 395.981140,592.864990 
	C395.947510,562.882385 395.868408,532.899475 396.012695,502.917633 
	C396.033691,498.557190 394.714142,497.112457 390.320374,497.158142 
	C372.332794,497.345093 354.341980,497.236145 336.352448,497.191162 
	C334.407379,497.186310 332.346741,497.661499 330.312378,496.201752 
	C330.149963,492.636292 333.317352,490.582458 334.567932,487.649353 
	C339.213440,476.753876 346.828033,473.200592 359.112305,473.481384 
	C399.567047,474.406067 440.057159,473.779907 480.533691,473.765198 
	C482.171600,473.764618 483.877930,473.460938 485.379211,474.452423 
	C486.293915,475.925995 485.296997,476.995056 484.593292,478.079041 
	C483.596252,479.614838 482.184174,480.965820 481.527771,482.624664 
	C476.590607,495.101044 467.580688,499.181335 454.496185,497.413452 
	C446.480835,496.330444 438.192261,497.421997 430.040253,497.138092 
	C425.537079,496.981232 423.969940,498.363708 424.002045,503.053101 
	C424.210663,533.534363 424.144928,564.017456 424.169189,595.000000 
z"/>
</svg>